<?xml version="1.0" encoding="UTF-8"?>
<svg id="Layer_2" xmlns="http://www.w3.org/2000/svg" viewBox="0 0 67.84 54.35">
  <g id="Layer_1-2" data-name="Layer_1">
    <g>
      <path d="M10.32,54.35c.1-.16.18-.32.29-.47,9.92-14.81,19.84-29.61,29.76-44.42.08-.13.18-.25.3-.43,1.96,3.09,3.89,6.14,5.87,9.27-.93,0-1.78.05-2.62-.02-.61-.05-.92.19-1.23.69-5.18,8.21-10.38,16.4-15.57,24.6-.07.1-.12.21-.21.38h.47c4.62,0,9.23,0,13.85,0,.33,0,.5-.09.66-.38,1.47-2.58,2.96-5.14,4.44-7.71.05-.09.1-.19.19-.35h-5.01c.27-.49.5-.9.74-1.31,1.24-2.15,2.49-4.3,3.72-6.45.15-.26.31-.35.6-.34,1.8.01,3.61.01,5.41,0,.26,0,.41.07.55.3,4.93,7.79,9.87,15.58,14.8,23.37.2.31.35.64.52.97v.85c-.28.73-.78,1.22-1.53,1.45H10.32Z"/>
      <path d="M1.54,54.35c-.36-.23-.79-.4-1.08-.7-.57-.6-.6-1.48-.14-2.21,2.84-4.48,5.68-8.97,8.52-13.45,3.83-6.04,7.65-12.08,11.48-18.12,3.99-6.29,7.97-12.58,11.96-18.87.61-.97,1.65-1.27,2.56-.74.25.14.49.36.64.6.79,1.21,1.55,2.45,2.34,3.66.17.27.04.42-.09.6-3.1,4.62-6.19,9.24-9.29,13.86-7.83,11.68-15.65,23.36-23.48,35.05-.07.1-.13.22-.19.33H1.54Z"/>
    </g>
  </g>
</svg>