<?xml version="1.0" encoding="UTF-8"?>
<svg xmlns="http://www.w3.org/2000/svg" version="1.1" viewBox="0 0 66.7 48.5">
  <defs>
    <style>
      .cls-1 {
        fill: #2d2d2d;
      }
    </style>
  </defs>
  <!-- Generator: Adobe Illustrator 28.6.0, SVG Export Plug-In . SVG Version: 1.2.0 Build 709)  -->
  <g>
    <g id="Layer_2">
      <g id="Layer_1-2">
        <path class="cls-1" d="M10.6,21.2h52.5c.5,0,1,0,1.4.1,1.4.4,2.4,1.8,2.2,3.2-.2,1.5-1.3,2.7-2.8,2.8-.3,0-.6,0-.9,0H10.4c.3.3.5.5.7.7,5,5,10,10,15.1,15.1.9.9,1.4,1.9,1,3.2-.6,2.1-3.1,2.9-4.8,1.5-.2-.2-.4-.4-.6-.6-6.8-6.8-13.6-13.6-20.4-20.4-1.7-1.7-1.7-3.3,0-5C8.2,14.9,15.1,8,21.9,1.1c.9-.9,1.9-1.4,3.2-1,2.1.6,2.9,3.1,1.5,4.8-.2.3-.5.5-.7.7-5,5-9.9,9.9-14.9,14.9-.2.2-.4.3-.7.4,0,0,.1.2.2.3h0Z"/>
      </g>
    </g>
  </g>
</svg>