<?xml version="1.0" encoding="UTF-8"?>
<svg xmlns="http://www.w3.org/2000/svg" xmlns:xlink="http://www.w3.org/1999/xlink" version="1.1" viewBox="0 0 27.4 27.4">
  <defs>
    <style>
      .cls-1 {
        fill: url(#linear-gradient);
      }
    </style>
    <linearGradient id="linear-gradient" x1="196" y1="501.3" x2="233.2" y2="501.3" gradientTransform="translate(-492.5 216.4) rotate(45) scale(1 -1)" gradientUnits="userSpaceOnUse">
      <stop offset="0" stop-color="#21e2f3"/>
      <stop offset="1" stop-color="#2196f3"/>
    </linearGradient>
  </defs>
  <!-- Generator: Adobe Illustrator 28.6.0, SVG Export Plug-In . SVG Version: 1.2.0 Build 709)  -->
  <g>
    <g id="Layer_2">
      <g id="Layer_1-2">
        <path class="cls-1" d="M26.8,24.3l-10.6-10.6L26.8,3.1c.7-.7.7-1.9,0-2.6s-1.9-.7-2.6,0l-10.6,10.6L3.1.5C2.4-.2,1.2-.2.5.5-.2,1.2-.2,2.4.5,3.1l10.6,10.6L.5,24.3c-.7.7-.7,1.9,0,2.6.7.7,1.9.7,2.6,0l10.6-10.6,10.6,10.6c.7.7,1.9.7,2.6,0s.7-1.9,0-2.6h0Z"/>
      </g>
    </g>
  </g>
</svg>