<?xml version="1.0" encoding="UTF-8"?>
<svg id="Layer_2" xmlns="http://www.w3.org/2000/svg" viewBox="0 0 85.53 85.26">
  <defs>
    <style>
      .cls-1 {
        fill: #08f;
      }
    </style>
  </defs>
  <g id="Layer_1-2" data-name="Layer_1">
    <path class="cls-1" d="M85.5,42.62c0,6.67-.11,13.35.03,20.02.11,5.34-2.07,9.45-6.1,12.71-5.23,4.24-11.39,6.44-17.85,7.81-14.84,3.16-29.59,2.87-44.12-1.83-4.2-1.36-8.14-3.28-11.56-6.14C2.03,71.96-.04,67.94,0,62.73c.11-13.57.09-27.14,0-40.72-.03-4.8,1.79-8.63,5.33-11.72C10.17,6.1,15.97,3.86,22.08,2.47c15.93-3.63,31.75-3.43,47.35,1.79,3.87,1.29,7.46,3.17,10.58,5.87,3.64,3.16,5.6,7.03,5.52,11.97-.12,6.84-.03,13.68-.03,20.52ZM42.6,31.8c7.83-.08,15.35-.8,22.49-3.57,2.81-1.09,5.53-2.62,7.97-4.38,2.45-1.76,2.42-3.61.05-5.46-1.94-1.52-4.12-2.93-6.41-3.78-15.14-5.58-30.47-5.6-45.78-.78-2.81.88-5.51,2.41-7.94,4.09-3.06,2.11-3.04,4.16-.05,6.34,2.04,1.49,4.34,2.72,6.68,3.66,7.43,2.99,15.27,3.8,22.99,3.88ZM74.81,35.62c-10.26,5.17-21.02,6.84-32.07,6.84-11.08,0-21.85-1.72-32.02-6.83,0,2.11.08,3.95-.02,5.78-.1,1.67.48,3.05,1.8,3.89,2.28,1.45,4.56,3.07,7.08,3.97,14.28,5.1,28.75,5.12,43.28,1.12,3.55-.98,7-2.33,9.8-4.79.96-.85,1.86-2.17,2.06-3.4.34-2.06.09-4.21.09-6.58ZM10.72,57.29c0,1.75.09,3.58-.03,5.4-.11,1.74.49,3.15,1.87,4.03,2.23,1.43,4.47,3,6.94,3.89,13.87,5,28,5.17,42.15,1.43,3.59-.95,6.99-2.78,10.29-4.55,1.22-.66,2.45-2.19,2.73-3.52.45-2.17.12-4.5.12-6.67-21.37,8.84-42.6,8.83-64.08,0Z"/>
  </g>
</svg>