<?xml version="1.0" encoding="UTF-8"?>
<svg xmlns="http://www.w3.org/2000/svg" version="1.1" viewBox="0 0 38.1 46.5">
  <defs>
    <style>
      .cls-1 {
        fill: #262f40;
      }

      .cls-2 {
        fill: #fac402;
      }
    </style>
  </defs>
  <!-- Generator: Adobe Illustrator 28.6.0, SVG Export Plug-In . SVG Version: 1.2.0 Build 709)  -->
  <g>
    <g id="Layer_1">
      <g id="Layer_2">
        <g id="Layer_1-2">
          <path class="cls-1" d="M36,27v11c.2,4.5-3.3,8.3-7.9,8.5-.2,0-.5,0-.7,0H10.7c-4.5.2-8.3-3.3-8.5-7.8,0-.2,0-.5,0-.7V15.3c0-.2,0-.5,0-.7,0-1.1.9-1.9,2-1.9,1.1,0,2.1.8,2.2,1.9,0,.3,0,.7,0,1v22.3c-.2,2.2,1.4,4.2,3.7,4.4.3,0,.5,0,.8,0h16.6c2.2.2,4.2-1.5,4.4-3.7,0-.2,0-.5,0-.7V15.3c0-.6.2-1.3.5-1.8.5-.8,1.5-1,2.3-.6.9.3,1.5,1.1,1.4,2v12.2Z"/>
          <path class="cls-1" d="M10.6,6.3v-3.8C10.6.8,11.3,0,13.2,0h11.8c1.8,0,2.6.8,2.6,2.6v3.8h8.6c1.1,0,2,1,2,2.1,0,1.1-.9,2-2,2.1-.3,0-.5,0-.8,0H2.8c-.3,0-.5,0-.8,0-1.1,0-2-1-2-2.1,0-1.1.9-2,2-2h8.6ZM23.2,4.3h-8.3v2h8.3v-2Z"/>
          <path class="cls-2" d="M12.7,26.5v-7.1c-.1-1.2.7-2.2,1.9-2.4,0,0,.1,0,.2,0,1.2,0,2.1.9,2.1,2.1,0,0,0,.2,0,.3v14.4c.1,1.2-.7,2.2-1.8,2.4,0,0-.2,0-.3,0-1.2,0-2.1-1-2.1-2.2,0,0,0-.1,0-.2,0-2.4,0-4.8,0-7.2Z"/>
          <path class="cls-2" d="M21.2,26.4v-7.1c0-1.2.8-2.2,1.9-2.3,1.2,0,2.2.8,2.3,1.9,0,0,0,.2,0,.3v14.5c0,1.1-.7,2-1.7,2.2-.9.2-1.9-.3-2.3-1.2-.2-.4-.2-.9-.2-1.3,0-2.3,0-4.7,0-7Z"/>
        </g>
      </g>
    </g>
  </g>
</svg>