<?xml version="1.0" encoding="UTF-8"?>
<svg id="Layer_2" xmlns="http://www.w3.org/2000/svg" viewBox="0 0 88.36 88.36">
  <defs>
    <style>
      .cls-1 {
        fill: #fff;
        stroke: #e0e0e0;
        stroke-miterlimit: 10;
        stroke-width: 3px;
      }

      .cls-2 {
        fill: #08f;
      }
    </style>
  </defs>
  <g id="Layer_1-2" data-name="Layer_1">
    <g>
      <circle class="cls-1" cx="44.18" cy="44.18" r="42.68"/>
      <path class="cls-2" d="M44.13,50.71c.54-.57.95-1,1.37-1.43,5.06-5.06,10.12-10.12,15.17-15.18.56-.56,1.18-.85,1.97-.61,1.21.37,1.67,1.81.89,2.81-.11.15-.25.27-.38.41-5.82,5.83-11.65,11.65-17.47,17.48-1.01,1.01-1.97,1.02-2.96.02-5.85-5.85-11.71-11.7-17.54-17.57-.32-.32-.59-.79-.68-1.23-.16-.74.2-1.35.84-1.75.62-.38,1.42-.33,2,.12.19.15.36.33.53.5,5.27,5.27,10.54,10.54,15.81,15.81.16.16.27.36.46.62Z"/>
    </g>
  </g>
</svg>