<?xml version="1.0" encoding="UTF-8"?>
<svg id="Layer_2" xmlns="http://www.w3.org/2000/svg" viewBox="0 0 119.88 97.35">
  <g id="Layer_1-2" data-name="Layer_1">
    <g id="Layer_1-2">
      <g>
        <path d="M59.96,0h45.29c8.58,0,14.63,6.05,14.63,14.67v10.07c0,.49-.32,1.13-.71,1.42-16.87,12.59-33.77,25.19-50.66,37.71-5.37,3.98-11.78,3.92-17.16-.06C34.54,51.34,17.81,38.85,1,26.42.26,25.87,0,25.28,0,24.38.06,20.95,0,17.51,0,14.08.06,6.28,6.28,0,14.08,0h45.87ZM59.96,9.39H14.44c-3.11,0-5.02,1.94-5.05,5.05,0,1.85.03,3.66,0,5.5,0,.74.23,1.2.81,1.62,15.51,11.49,30.98,23.02,46.46,34.54,2.4,1.78,4.21,1.78,6.6,0,15.51-11.52,31.05-23.08,46.52-34.64.39-.29.68-.94.68-1.42.1-1.75.03-3.5,0-5.28,0-3.56-1.81-5.37-5.41-5.37h-45.16.06Z"/>
        <path d="M0,37.29c3.11,2.33,6.02,4.44,8.84,6.64.32.26.52.94.52,1.39v37.33c0,.62,0,1.26.16,1.85.52,2.04,2.23,3.4,4.31,3.5h91.07c3.82,0,5.6-1.75,5.6-5.54v-36.87c0-1.04.32-1.62,1.13-2.2,2.43-1.72,4.76-3.53,7.15-5.28.29-.23.62-.42,1.1-.78v45.65c0,8.22-6.15,14.37-14.34,14.37H14.37c-8.19,0-14.37-6.18-14.37-14.34v-45.74.03Z"/>
      </g>
    </g>
  </g>
</svg>