<?xml version="1.0" encoding="UTF-8"?>
<svg xmlns="http://www.w3.org/2000/svg" version="1.1" viewBox="0 0 89.2 89.2">
  <defs>
    <style>
      .cls-1 {
        fill: #2196f3;
      }

      .cls-2 {
        fill: #4c4c4c;
      }
    </style>
  </defs>
  <!-- Generator: Adobe Illustrator 28.6.0, SVG Export Plug-In . SVG Version: 1.2.0 Build 709)  -->
  <g>
    <g id="Layer_2">
      <g id="Layer_1-2">
        <g id="Layer_1-2-2" data-name="Layer_1-2">
          <g>
            <path class="cls-1" d="M44.6,54.9c3.9-3.9,7.6-7.5,11.2-11.3,1.1-1.1,2.2-1.6,3.8-1.6,8.7,0,17.3,0,26,0,1.4,0,2.7,0,3.3,1.6.7,1.5-.2,2.5-1.2,3.5-3.7,3.7-7.4,7.5-11.2,11.2-.9.9-1.4,1.8-1.3,3.2,0,7.9,0,15.9,0,23.8s-.8,3.9-3.8,3.9H17.6c-2.8,0-3.7-.8-3.7-3.6,0-8.1,0-16.1,0-24.2,0-1.3-.4-2.2-1.3-3-3.8-3.7-7.6-7.5-11.4-11.3-.9-.9-1.8-1.9-1.2-3.4.6-1.5,1.9-1.7,3.3-1.7,8.7,0,17.4,0,26.1,0,1.5,0,2.6.5,3.7,1.6,3.7,3.8,7.4,7.5,11.3,11.3h0ZM41.9,83.9v-22.6h-22.5v22.6h22.5ZM47.3,83.8h22.6v-22.5h-22.6v22.5h0ZM37.8,56c0-.2.2-.3.2-.5-2.5-2.4-4.9-4.9-7.5-7.2-.6-.6-1.6-1-2.4-1-5.7,0-11.5,0-17.2,0-.5,0-.9,0-1.8.2,2.7,2.7,5.1,5.2,7.7,7.6.6.6,1.6.9,2.4,1,4.2,0,8.4,0,12.5,0h6ZM51.3,55.6c0,.1.1.3.2.4,3.7,0,7.4,0,11.1,0,3,0,6.2.7,8.8-.3,2.5-1,4.3-3.9,6.4-6,.7-.7,1.4-1.4,2.2-2.3-.4-.1-.6-.2-.8-.2-6.2,0-12.4,0-18.6,0-.5,0-1.1.2-1.4.5-2.7,2.6-5.3,5.2-7.9,7.8h0Z"/>
            <path class="cls-2" d="M47.2,39.1c0,1.2,0,2,0,2.7,0,1.6-1,2.5-2.5,2.6s-2.5-.9-2.6-2.5c-.3-3.2-.5-6.5-1-9.7-.7-4.4-1.8-8.6-4-12.5-2.1-3.6-5-6.1-9.4-6.1-3.5,0-6,1.6-6.8,4.4-.8,2.6.4,5.6,3.1,7.5,2.4,1.7,5,2.3,7.9,2.4.8,0,1.5,0,2.2.2,1.4.3,2,1.3,1.9,2.7-.1,1.3-.9,2.2-2.2,2.3-5.7.2-11-1.1-15.1-5.4-3.6-3.7-4.3-8.9-2.1-13.2,2.2-4.3,7.4-6.7,12.7-6.1,4.8.6,8.5,3,11.2,6.9,3.5,5,4.9,10.7,5.9,16.5.4,2.5.6,5.1.8,7.1h0Z"/>
            <path class="cls-2" d="M54.8,33.2c-.7,0-1.3,0-1.9,0-1.5-.1-2.5-1.1-2.5-2.6s1-2.4,2.5-2.6c2-.2,4-.2,5.9-.5,3.3-.6,6.3-2,8.6-4.5,4.6-5,3.1-11.5-3.3-13.8-1.7-.6-3.5-.8-5.3-1-1.9-.2-3-1.2-2.9-2.8,0-1.5,1.2-2.5,3-2.5,7.2-.1,13.5,3.8,15.5,9.8,2,5.7-.2,12-5.5,15.9-4.3,3.1-9.2,4.3-14.2,4.6h0Z"/>
            <path class="cls-2" d="M47.4,1.6c.5-.4.9-.8,1.3-1.1,1.2-.8,2.3-.7,3.3.3.9.9,1.1,2.1.3,3.2-1,1.3-2.2,2.5-3.5,3.6-1,.8-2.2.6-3.2-.2-.9-.8-1.8-1.7-2.6-2.6-1.2-1.3-1.4-2.7-.3-3.8,1.1-1.2,2.4-1.2,4,0,.2.2.4.4.8.6h0Z"/>
          </g>
        </g>
      </g>
    </g>
  </g>
</svg>