<?xml version="1.0" encoding="UTF-8"?>
<svg id="Layer_2" xmlns="http://www.w3.org/2000/svg" viewBox="0 0 85.53 103.71">
  <defs>
    <style>
      .cls-1 {
        fill: #fdc900;
      }

      .cls-2 {
        fill: #08f;
      }
    </style>
  </defs>
  <g id="Layer_1-2" data-name="Layer_1">
    <g>
      <g id="Layer_1-2">
        <path class="cls-2" d="M42.6,50.26c-1.67-.02-3.35-.07-5.02-.17v7.45h10.43v-7.46c-1.78.11-3.59.16-5.41.18ZM85.5,61.08c0-6.84-.09-13.68.03-20.52.08-4.94-1.88-8.81-5.52-11.97-3.12-2.7-6.71-4.58-10.58-5.87-2.19-.73-4.38-1.37-6.58-1.9l4.82,8.34c.88,1.53,1.28,3.22,1.19,4.9,1.5.77,2.93,1.76,4.25,2.79,2.37,1.85,2.4,3.7-.05,5.46-2.44,1.76-5.16,3.29-7.97,4.38-3.91,1.52-7.94,2.42-12.08,2.94v10.74c7.46-.84,14.75-2.74,21.8-6.29,0,2.37.25,4.52-.09,6.58-.2,1.23-1.1,2.55-2.06,3.4-2.8,2.46-6.25,3.81-9.8,4.79-14.53,4-29,3.98-43.28-1.12-2.52-.9-4.8-2.52-7.08-3.97-1.32-.84-1.9-2.22-1.8-3.89.1-1.83.02-3.67.02-5.78,7.03,3.53,14.35,5.45,21.86,6.28v-10.74c-4.4-.56-8.75-1.55-12.97-3.25-2.34-.94-4.64-2.17-6.68-3.66-2.99-2.18-3.01-4.23.05-6.34,1.19-.83,2.45-1.61,3.76-2.3-.1-1.68.3-3.38,1.19-4.92l4.84-8.38-.69.15c-6.11,1.39-11.91,3.63-16.75,7.82C1.79,31.84-.03,35.67,0,40.47.09,54.05.11,67.62,0,81.19c-.04,5.21,2.03,9.23,5.9,12.46,3.42,2.86,7.36,4.78,11.56,6.14,14.53,4.7,29.28,4.99,44.12,1.83,6.46-1.37,12.62-3.57,17.85-7.81,4.03-3.26,6.21-7.37,6.1-12.71-.14-6.67-.03-13.35-.03-20.02ZM74.67,82.43c-.28,1.33-1.51,2.86-2.73,3.52-3.3,1.77-6.7,3.6-10.29,4.55-14.15,3.74-28.28,3.57-42.15-1.43-2.47-.89-4.71-2.46-6.94-3.89-1.38-.88-1.98-2.29-1.87-4.03.12-1.82.03-3.64.03-5.39,21.48,8.83,42.7,8.84,64.07,0,0,2.17.33,4.5-.12,6.67ZM22.13,31.92c13.83-4.12,27.66-4.28,41.36.05-.04-.11-.09-.21-.15-.31l-7.03-12.17c-8.97-1.43-17.99-1.33-27.06.07l-6.99,12.1c-.05.09-.1.17-.13.26Z"/>
      </g>
      <path class="cls-1" d="M59.94,37.53h-11.93v20.01h-10.43v-20.01h-11.93c-2.92,0-4.78-3.05-3.52-5.61.03-.09.08-.17.13-.26l6.99-12.1L39.4,1.96c.76-1.31,2.08-1.96,3.4-1.96s2.64.65,3.39,1.96l10.12,17.53,7.03,12.17c.06.1.11.2.15.31,1.2,2.55-.65,5.56-3.55,5.56Z"/>
    </g>
  </g>
</svg>