<?xml version="1.0" encoding="UTF-8"?>
<svg id="Layer_2" xmlns="http://www.w3.org/2000/svg" viewBox="0 0 85.53 103.71">
  <defs>
    <style>
      .cls-1 {
        fill: #fdc900;
      }

      .cls-2 {
        fill: #08f;
      }
    </style>
  </defs>
  <g id="Layer_1-2" data-name="Layer_1">
    <g>
      <g id="Layer_1-2">
        <path class="cls-2" d="M42.6,50.26c-2.14-.02-4.29-.1-6.43-.27l3.23,5.59c.75,1.31,2.07,1.96,3.39,1.96s2.64-.65,3.4-1.96l3.23-5.6c-2.24.18-4.52.26-6.82.28ZM85.5,61.08c0-6.84-.09-13.68.03-20.52.08-4.94-1.88-8.81-5.52-11.97-3.12-2.7-6.71-4.58-10.58-5.87-.23-.08-.45-.15-.68-.22.33,1.99-.03,4.05-1.09,5.88l-2.41,4.17c.48.17.97.34,1.45.52,2.29.85,4.47,2.26,6.41,3.78,2.37,1.85,2.4,3.7-.05,5.46-2.44,1.76-5.16,3.29-7.97,4.38-3.09,1.2-6.24,2.02-9.47,2.55l-5.1,8.84c-.62,1.08-1.44,1.99-2.38,2.69,9.16-.49,18.09-2.37,26.67-6.69,0,2.37.25,4.52-.09,6.58-.2,1.23-1.1,2.55-2.06,3.4-2.8,2.46-6.25,3.81-9.8,4.79-14.53,4-29,3.98-43.28-1.12-2.52-.9-4.8-2.52-7.08-3.97-1.32-.84-1.9-2.22-1.8-3.89.1-1.83.02-3.67.02-5.78,8.54,4.29,17.51,6.19,26.73,6.69-.95-.71-1.76-1.62-2.38-2.7l-5.11-8.84c-3.5-.59-6.97-1.49-10.35-2.86-2.34-.94-4.64-2.17-6.68-3.66-2.99-2.18-3.01-4.23.05-6.34,2.25-1.56,4.73-2.98,7.32-3.88l-2.38-4.12c-1.08-1.87-1.43-3.97-1.07-6-4.17,1.41-8.09,3.4-11.52,6.37C1.79,31.84-.03,35.67,0,40.47.09,54.05.11,67.62,0,81.19c-.04,5.21,2.03,9.23,5.9,12.46,3.42,2.86,7.36,4.78,11.56,6.14,14.53,4.7,29.28,4.99,44.12,1.83,6.46-1.37,12.62-3.57,17.85-7.81,4.03-3.26,6.21-7.37,6.1-12.71-.14-6.67-.03-13.35-.03-20.02ZM74.67,82.43c-.28,1.33-1.51,2.86-2.73,3.52-3.3,1.77-6.7,3.6-10.29,4.55-14.15,3.74-28.28,3.57-42.15-1.43-2.47-.89-4.71-2.46-6.94-3.89-1.38-.88-1.98-2.29-1.87-4.03.12-1.82.03-3.64.03-5.39,21.48,8.83,42.7,8.84,64.07,0,0,2.17.33,4.5-.12,6.67ZM25.24,31.06c11.73-2.99,23.46-3.1,35.1-.01l2.99-5.17c1.11-1.92.38-4.2-1.29-5.26-.94-.22-1.88-.42-2.83-.61h-11.21v-1.42c-3.47-.19-6.94-.17-10.42.05v1.37h-11.03c-.99.18-1.98.38-2.98.59-1.69,1.06-2.44,3.35-1.32,5.28l2.99,5.18ZM42.6,50.26c-2.14-.02-4.29-.1-6.43-.27l3.23,5.59c.75,1.31,2.07,1.96,3.39,1.96s2.64-.65,3.4-1.96l3.23-5.6c-2.24.18-4.52.26-6.82.28ZM42.6,50.26c-2.14-.02-4.29-.1-6.43-.27l3.23,5.59c.75,1.31,2.07,1.96,3.39,1.96s2.64-.65,3.4-1.96l3.23-5.6c-2.24.18-4.52.26-6.82.28Z"/>
      </g>
      <path class="cls-1" d="M63.33,25.88l-2.99,5.17-10.92,18.93-3.23,5.6c-.76,1.31-2.08,1.96-3.4,1.96s-2.64-.65-3.39-1.96l-3.23-5.59-10.93-18.93-2.99-5.18c-1.12-1.93-.37-4.22,1.32-5.28.59-.37,1.3-.59,2.08-.59h11.93V0h10.42v20.01h11.94c.79,0,1.51.23,2.1.61,1.67,1.06,2.4,3.34,1.29,5.26Z"/>
    </g>
  </g>
</svg>