<?xml version="1.0" encoding="UTF-8"?>
<svg id="Layer_2" xmlns="http://www.w3.org/2000/svg" viewBox="0 0 28.77 24.01">
  <defs>
    <style>
      .cls-1 {
        fill: #08f;
      }
    </style>
  </defs>
  <g id="Layer_1-2" data-name="Layer_1">
    <path class="cls-1" d="M28.61,6.47C27.47.45,20.21-2.06,15.57,1.94c-.41.35-.79.74-1.21,1.14-.26-.26-.5-.52-.75-.76C9.91-1.3,3.87-.56,1.15,3.84c-1.67,2.7-1.51,6.24.41,8.96.82,1.15,1.86,2.1,2.89,3.06,2.87,2.68,5.88,5.2,8.91,7.69.74.61,1.31.61,2.06-.01,1.71-1.43,3.42-2.84,5.1-4.29,2.03-1.75,4.07-3.49,5.88-5.47,1.89-2.07,2.75-4.51,2.22-7.3ZM8,2.57c-.21,0-.43.01-.65.03.22-.02.44-.03.65-.03ZM2.59,8.61s-.01-.07-.02-.11c0,.04.01.07.02.11ZM24.53,12.02c-1.26,1.33-2.61,2.58-3.98,3.8-1.96,1.74-3.97,3.4-5.95,5.1-.06.05-.13.1-.23.17h0c.09-.07.16-.12.23-.17,1.99-1.7,4-3.37,5.95-5.1,1.37-1.22,2.72-2.46,3.98-3.8,1.5-1.59,2.07-3.51,1.43-5.66-1.14-3.82-6.03-5.08-8.94-2.32,2.9-2.77,7.8-1.5,8.94,2.32.64,2.14.08,4.07-1.43,5.66Z"/>
  </g>
</svg>