<?xml version="1.0" encoding="UTF-8"?>
<svg id="Layer_2" xmlns="http://www.w3.org/2000/svg" xmlns:xlink="http://www.w3.org/1999/xlink" viewBox="0 0 37.84 37.84">
  <defs>
    <style>
      .cls-1 {
        fill: url(#linear-gradient);
      }

      .cls-2 {
        fill: #f18820;
      }

      .cls-3 {
        fill: #e8e8e8;
      }
    </style>
    <linearGradient id="linear-gradient" x1="12.25" y1="12.46" x2="25.24" y2="12.46" gradientUnits="userSpaceOnUse">
      <stop offset="0" stop-color="#15b9dc"/>
      <stop offset="1" stop-color="#1565dd"/>
    </linearGradient>
  </defs>
  <g id="Layer_1-2" data-name="Layer_1">
    <g>
      <g id="Layer_1-2">
        <circle class="cls-3" cx="18.92" cy="18.92" r="18.92"/>
      </g>
      <g id="Layer_2-2" data-name="Layer_2">
        <g id="Layer_1-2-2" data-name="Layer_1-2">
          <path class="cls-2" d="M24.52,19.87v3.75c.06,1.54-1.13,2.84-2.68,2.91-.08,0-.16,0-.24,0h-5.71c-1.54.07-2.84-1.12-2.91-2.66,0-.08,0-.16,0-.24v-7.74c0-.08,0-.16,0-.24.01-.37.31-.66.68-.66.38-.02.71.26.74.64,0,.11,0,.23,0,.34v7.61c-.07.76.49,1.44,1.25,1.51.09,0,.17,0,.26,0h5.66c.76.06,1.43-.5,1.5-1.26,0-.08,0-.15,0-.23v-7.71c0-.22.06-.44.17-.63.17-.26.5-.35.78-.22.3.09.49.37.47.68v2.6l.02,1.54Z"/>
          <path class="cls-1" d="M15.85,12.83v-1.28c0-.63.26-.88.88-.89h4.04c.62,0,.88.26.88.88v1.28h2.91c.39.01.69.33.68.72,0,.38-.3.69-.68.71-.09,0-.18,0-.27,0h-11.09c-.09,0-.18,0-.27,0-.39-.02-.68-.35-.68-.73,0-.38.31-.68.68-.68h2.92ZM20.16,12.13h-2.83v.68h2.83v-.68Z"/>
          <path class="cls-2" d="M16.57,19.68v-2.43c-.05-.4.24-.76.65-.81.02,0,.04,0,.06,0,.4,0,.72.31.73.71,0,.03,0,.06,0,.09v4.9c.05.4-.23.76-.63.81-.03,0-.06,0-.09,0-.41-.01-.73-.35-.72-.76,0-.02,0-.04,0-.06,0-.82,0-1.63,0-2.44Z"/>
          <path class="cls-2" d="M19.47,19.66v-2.43c-.03-.4.26-.74.66-.77.4-.03.74.26.77.66,0,.03,0,.06,0,.1v4.93c.02.36-.22.69-.58.77-.32.07-.65-.1-.78-.4-.05-.15-.08-.3-.07-.46-.01-.8,0-1.6,0-2.4Z"/>
        </g>
      </g>
    </g>
  </g>
</svg>