<?xml version="1.0" encoding="UTF-8"?>
<svg id="Layer_2" xmlns="http://www.w3.org/2000/svg" xmlns:xlink="http://www.w3.org/1999/xlink" viewBox="0 0 39.15 39.15">
  <defs>
    <style>
      .cls-1 {
        fill: url(#linear-gradient);
      }

      .cls-2 {
        fill: #e8e8e8;
      }
    </style>
    <linearGradient id="linear-gradient" x1="12.74" y1="19.57" x2="26.41" y2="19.57" gradientUnits="userSpaceOnUse">
      <stop offset="0" stop-color="#15b9dc"/>
      <stop offset="1" stop-color="#1565dd"/>
    </linearGradient>
  </defs>
  <g id="Layer_1-2" data-name="Layer_1">
    <g>
      <g id="Layer_1-2">
        <circle class="cls-2" cx="19.57" cy="19.57" r="19.57"/>
      </g>
      <path class="cls-1" d="M14.93,26.42h-1.19c-.5.05-.95-.32-.99-.83,0-.05,0-.09,0-.14v-2.49c.03-.51.26-.98.64-1.32,2.76-2.76,5.49-5.51,8.25-8.25.65-.79,1.82-.91,2.62-.25.09.08.18.16.25.25.46.44.93.9,1.37,1.37.72.71.72,1.87.01,2.58-.02.02-.04.04-.06.06-2.8,2.84-5.64,5.66-8.48,8.48-.34.34-.81.52-1.29.52l-1.12.02ZM15.33,24.53c.5.11,1.02-.1,1.32-.52,1.29-1.32,2.61-2.62,3.91-3.93.37-.39,1.08-.75,1.03-1.16s-.72-.82-1.09-1.22-.28-.24-.49,0c-1.73,1.74-3.47,3.46-5.2,5.22-.41.42-.21.99-.16,1.48s.47.07.68.13ZM23.08,17.55c.13-.11.25-.22.36-.34.34-.39,1.01-.7.98-1.12s-.65-.7-.96-1.08-.49-.31-.8,0c-1.17,1.19-1.17,1.34.21,2.38l.21.16Z"/>
    </g>
  </g>
</svg>