<svg width="248" height="242" viewBox="0 0 248 242" fill="none" xmlns="http://www.w3.org/2000/svg">
<mask id="mask0_53_17" style="mask-type:luminance" maskUnits="userSpaceOnUse" x="0" y="0" width="244" height="242">
<path d="M243.9 0.069519H0V241.93H243.9V0.069519Z" fill="white"/>
</mask>
<g mask="url(#mask0_53_17)">
<path d="M98.1675 235.745C94.2374 237.731 90.3069 239.698 85.9016 241.93C80.8505 229.352 70.2366 219.006 73.9961 203.193C64.4643 209.246 56.0333 214.618 47.3559 220.141C44.7926 216.093 42.438 212.386 39.7607 208.168C44.6216 205.047 49.1598 201.68 54.0776 199.051C68.3376 191.447 74.5275 179.777 73.4834 163.794C73.0086 156.588 73.3882 149.325 73.4454 142.099C73.4454 140.246 73.7111 138.411 73.9009 135.952C75.2872 136.765 76.1987 137.2 76.9964 137.787C82.8446 142.137 89.3574 144.558 96.6866 144.936C99.6489 145.088 102.706 145.428 105.516 146.298C112.257 148.36 114.611 151.746 114.611 158.782C114.63 175.294 114.611 191.826 114.611 208.338C114.611 209.87 114.478 211.402 114.402 213.218C104.567 213.691 96.0979 210.891 87.9144 205.539C85.9962 217.606 95.3382 225.21 98.1487 235.764L98.1675 235.745Z" fill="#2296F3"/>
<path d="M203.684 208.149C201.007 212.367 198.652 216.074 196.089 220.122C187.487 214.656 179.132 209.341 169.81 203.402C172.98 218.59 162.917 229.106 157.638 241.873C153.29 239.698 149.283 237.713 145.296 235.727C147.859 225.38 157.372 217.776 155.55 205.482C147.461 210.816 138.897 213.672 128.814 213.18V207.808C128.814 191.92 128.814 176.032 128.814 160.143C128.814 150.649 132.46 146.601 142.049 145.258C147.024 144.558 152.151 144.237 156.879 142.742C161.132 141.4 164.948 138.695 169.43 136.33C169.619 138.203 169.98 140.151 169.999 142.08C170.075 151.197 169.98 160.333 170.075 169.45C170.208 180.609 174.689 189.499 184.24 195.627C190.582 199.694 196.924 203.799 203.684 208.149Z" fill="#2296F3"/>
<path d="M80.3379 120.291C84.8383 113.822 90.6866 109.188 98.0537 106.71C101.187 105.67 102.193 104.156 101.946 100.998C101.661 97.2527 101.756 93.4508 101.928 89.6681C102.307 80.6077 107.586 75.5953 116.681 75.5766C120.004 75.5766 123.308 75.5766 126.631 75.5766C135.973 75.5953 141.233 80.6455 141.536 89.9892C141.669 94.075 141.327 98.1986 141.707 102.246C141.84 103.627 143.226 105.216 144.479 106.105C149.91 110.02 155.568 113.633 160.999 117.548C163.467 119.326 162.917 121.369 161.018 123.506C156.917 128.121 151.828 130.41 145.694 130.883C133.618 131.81 131.397 132.68 121.618 139.413C114.099 132.49 104.51 131.28 94.6551 130.391C88.3508 129.823 83.6798 126.041 80.3379 120.309V120.291Z" fill="#2296F3"/>
<path d="M149.435 27.7605C149.397 43.0435 137.093 55.3378 121.789 55.3948C106.371 55.4513 93.8953 42.8922 94.0092 27.42C94.1423 12.1938 106.579 -0.00609431 121.903 0.0695639C137.207 0.145222 149.473 12.4965 149.435 27.7605Z" fill="#FED32B"/>
<path d="M22.1969 154.999H40.8431V140.832C31.0073 140.832 21.1146 140.832 11.2219 140.832C4.53812 140.832 2.92415 139.981 1.44309 133.398C0.360771 128.594 0.455711 123.525 0 118.21H64.8819C55.4067 137.352 60.9705 157.704 58.9197 177.318C41.2418 180.364 25.254 170.85 22.1969 154.999Z" fill="#FED32B"/>
<path d="M202.545 154.904H221.077C219.539 169.752 204.007 179.323 184.601 177.545C182.398 157.988 188.095 137.598 178.601 118.267H243.9C242.875 124.49 242.135 130.599 240.806 136.576C240.084 139.792 237.635 141.002 234.027 140.908C223.64 140.643 213.254 140.813 202.564 140.813V154.904H202.545Z" fill="#FED32B"/>
<path d="M64.0083 29.4818H78.1737C77.9454 43.8569 80.0914 58.0427 72.0784 71.3587C66.8188 80.0975 68.7173 89.2708 74.9264 97.3662C75.971 98.7279 77.129 99.9954 78.2876 101.395C75.0595 104.819 71.9833 108.091 68.8884 111.363C55.6538 100.26 50.8689 81.6105 58.5781 66.5545C62.869 58.1753 64.5403 49.8528 64.0276 40.736C63.8185 37.1611 63.9896 33.5484 63.9896 29.4818H64.0083Z" fill="#2296F3"/>
<path d="M165.176 29.4818H179.436C179.436 35.9506 179 42.2302 179.589 48.4153C180.025 53.1437 180.936 58.1561 183.082 62.3175C192.158 80.0027 189.557 97.1393 174.746 111.458C171.67 108.223 168.575 104.989 165.157 101.395C166.297 100.033 167.531 98.6715 168.632 97.2341C174.575 89.4412 176.436 80.6077 171.69 72.0585C166.259 62.2419 164.607 52.085 165.138 41.2088C165.329 37.4637 165.176 33.6997 165.176 29.5007V29.4818Z" fill="#2296F3"/>
</g>
</svg>
