<?xml version="1.0" encoding="UTF-8"?>
<svg id="Layer_2" xmlns="http://www.w3.org/2000/svg" viewBox="0 0 122.5 122.51">
  <defs>
    <style>
      .cls-1 {
        fill: #fdc900;
      }

      .cls-2 {
        fill: #08f;
      }
    </style>
  </defs>
  <g id="Layer_1-2" data-name="Layer_1">
    <g id="Layer_1-2">
      <g id="Layer_1-2-2" data-name="Layer_1-2">
        <g>
          <path class="cls-1" d="M11.7,95.11c0-1.82.6-3.44,1.72-4.86,1.75-2.25,3.51-4.53,5.29-6.78.4-.53.43-.89.17-1.49-.79-1.79-1.49-3.6-2.28-5.36-.2-.4-.69-.86-1.12-.93-2.71-.4-5.46-.76-8.17-1.06-4.4-.5-7.31-3.64-7.31-8.04v-10.75c0-4.37,2.78-7.44,7.14-7.97,2.71-.33,5.46-.69,8.17-.99.73-.07,1.09-.4,1.32-1.09.66-1.79,1.42-3.54,2.18-5.29.26-.6.23-.99-.17-1.49-1.75-2.22-3.51-4.46-5.23-6.71-2.68-3.51-2.41-7.44.69-10.58,2.51-2.55,5.06-5.09,7.61-7.61,3.08-3.04,7.04-3.31,10.48-.69,2.25,1.72,4.5,3.44,6.68,5.23.53.43.96.5,1.59.2,1.69-.79,3.44-1.49,5.19-2.15.79-.3,1.09-.73,1.16-1.55.3-2.75.63-5.46.99-8.17.66-4.3,3.74-6.98,8.1-6.98h10.65c4.43,0,7.54,2.78,8.07,7.18.33,2.71.69,5.46.99,8.17.07.69.36,1.03,1.03,1.26,1.79.66,3.57,1.39,5.29,2.18.63.3,1.06.26,1.59-.17,2.18-1.75,4.4-3.44,6.61-5.16,3.47-2.68,7.47-2.48,10.58.6,2.58,2.55,5.16,5.13,7.71,7.71,2.98,3.04,3.24,7.01.69,10.39-1.72,2.28-3.51,4.56-5.29,6.78-.4.5-.46.89-.17,1.49.79,1.79,1.55,3.57,2.25,5.39.26.69.63.89,1.29.99,2.78.33,5.52.66,8.3,1.03,4.3.56,7.01,3.64,7.01,7.97v10.65c0,4.4-2.58,7.44-6.88,8.07-2.71.4-5.46.73-8.17,1.03-.86.1-1.32.36-1.62,1.22-.6,1.72-1.32,3.41-2.08,5.06-.33.69-.26,1.12.2,1.69,1.75,2.18,3.44,4.37,5.16,6.61,2.68,3.51,2.41,7.44-.69,10.58-2.51,2.55-5.06,5.09-7.61,7.61-3.11,3.08-7.08,3.31-10.58.63-2.22-1.69-4.43-3.41-6.61-5.13-.53-.43-.96-.46-1.59-.17-1.75.83-3.6,1.49-5.39,2.28-.4.17-.83.66-.86,1.06-.4,2.68-.73,5.36-1.03,8.07-.5,4.63-3.54,7.41-8.2,7.44h-10.52c-4.37,0-7.41-2.65-8-6.95-.36-2.71-.73-5.46-.99-8.17-.1-.89-.46-1.29-1.29-1.59-1.69-.6-3.34-1.29-4.96-2.05-.73-.36-1.19-.26-1.79.2-2.15,1.72-4.3,3.41-6.52,5.06-3.57,2.71-7.51,2.45-10.68-.69-2.58-2.55-5.13-5.13-7.71-7.71-1.52-1.52-2.32-3.31-2.32-5.46l-.1-.03h.03ZM95.14,105.92c.69-.43,1.46-.76,1.98-1.26,2.51-2.45,4.99-4.93,7.44-7.44,1.42-1.42,1.49-2.48.26-4.1-2.12-2.75-4.23-5.49-6.38-8.2-.86-1.09-.93-2.15-.36-3.44,1.22-2.71,2.41-5.46,3.44-8.24.56-1.59,1.49-2.32,3.11-2.48,3.37-.36,6.71-.79,10.09-1.26,1.85-.26,2.65-1.19,2.65-3.04v-10.42c0-1.95-.76-2.88-2.71-3.11-3.41-.46-6.78-.89-10.19-1.29-1.46-.17-2.35-.86-2.88-2.28-1.03-2.78-2.18-5.56-3.41-8.27-.66-1.42-.6-2.51.36-3.74,2.15-2.68,4.23-5.39,6.32-8.1,1.19-1.55,1.12-2.61-.23-4-2.41-2.45-4.83-4.86-7.28-7.28-1.59-1.59-2.58-1.65-4.37-.26-2.68,2.08-5.36,4.13-8,6.25-1.12.89-2.22.96-3.54.36-2.71-1.22-5.46-2.41-8.24-3.44-1.52-.56-2.25-1.46-2.41-3.01-.36-3.37-.79-6.71-1.26-10.09-.26-1.92-1.19-2.71-3.11-2.71h-10.29c-2.05,0-2.94.76-3.21,2.78-.43,3.34-.89,6.71-1.26,10.09-.17,1.52-.86,2.41-2.35,2.94-2.78,1.03-5.56,2.18-8.27,3.41-1.36.63-2.45.6-3.64-.36-2.65-2.12-5.32-4.17-8-6.25-1.75-1.36-2.75-1.29-4.27.23-2.41,2.38-4.8,4.8-7.18,7.18-1.52,1.55-1.62,2.58-.3,4.27,2.05,2.65,4.07,5.32,6.18,7.9.99,1.22,1.09,2.38.4,3.84-1.22,2.61-2.35,5.29-3.34,8.04-.56,1.59-1.46,2.32-3.08,2.48-3.34.36-6.65.79-9.96,1.22-2.02.26-2.78,1.16-2.78,3.18v10.15c0,2.15.79,3.01,2.94,3.27,3.37.43,6.71.86,10.09,1.26,1.42.17,2.25.89,2.75,2.25,1.03,2.78,2.15,5.56,3.41,8.27.66,1.42.6,2.51-.36,3.74-2.15,2.68-4.23,5.39-6.32,8.1-1.19,1.55-1.12,2.61.23,4,2.41,2.41,4.83,4.86,7.28,7.28,1.59,1.59,2.58,1.65,4.37.3,2.71-2.08,5.42-4.2,8.1-6.32,1.06-.83,2.08-.89,3.34-.33,2.78,1.26,5.62,2.45,8.47,3.54,1.42.53,2.12,1.39,2.28,2.84.4,3.37.83,6.71,1.26,10.09.26,2.05,1.16,2.84,3.27,2.84h10.05c2.18,0,3.08-.76,3.34-2.88.43-3.37.86-6.71,1.26-10.09.17-1.49.89-2.28,2.32-2.81,2.75-1.03,5.49-2.12,8.14-3.37,1.46-.69,2.58-.63,3.84.4,2.65,2.12,5.32,4.17,8.04,6.22.56.43,1.22.69,1.98,1.09l-.03.07h.02Z"/>
          <path class="cls-2" d="M61.27,86.77c-13.99,0-25.5-11.41-25.57-25.43-.07-14.02,11.44-25.6,25.5-25.63,14.02,0,25.6,11.51,25.57,25.57,0,14.02-11.48,25.47-25.5,25.5h0ZM61.18,81.61c11.28.03,20.41-9.03,20.44-20.31s-9-20.41-20.27-20.47c-11.31-.07-20.47,9.03-20.51,20.34,0,11.28,9.06,20.37,20.31,20.41,0,0,.03.03.03.03Z"/>
        </g>
      </g>
    </g>
  </g>
</svg>