<?xml version="1.0" encoding="UTF-8"?>
<svg id="Layer_2" xmlns="http://www.w3.org/2000/svg" viewBox="0 0 116.01 116.72">
  <g id="Layer_1-2" data-name="Layer_1">
    <g id="Layer_1-2">
      <g>
        <path d="M0,116.72c2.6-9.52,5.15-18.63,7.54-27.77.31-1.18.18-2.77-.37-3.84C-11.26,49.65,10,7.2,49.47.73c32.63-5.35,63.95,19.29,66.37,52.22,2.28,31.11-18.53,57.44-49.42,62.27-11.77,1.84-23.03-.24-33.79-5.34-1.24-.59-2.97-.74-4.3-.41-8.71,2.15-17.38,4.5-26.06,6.77-.61.16-1.24.26-2.27.48h0ZM13.96,102.85c.96-.17,1.5-.22,2.02-.36,4.38-1.15,8.78-2.22,13.12-3.5,2-.59,3.6-.36,5.44.69,9.6,5.49,19.97,7.57,30.88,5.78,27.24-4.48,44.56-28.83,40.12-56.12-4.15-25.54-30.23-43.7-55.61-38.73C15.96,17.27-.26,53.97,17.61,83.67c.57.96.77,2.45.51,3.54-1.23,5.1-2.68,10.15-4.16,15.64Z"/>
        <path d="M73.54,85.84c-6.15-.37-11.57-2.58-16.7-5.31-11.2-5.97-19.42-15.05-25.39-26.08-4.25-7.85-3.17-15.24,2.02-20.96,2.42-2.66,5.32-2.42,8.28-2.03.72.1,1.55,1.18,1.91,1.99,1.64,3.69,3.22,7.43,4.63,11.21.31.84.15,2.1-.28,2.92-.74,1.41-1.76,2.74-2.86,3.91-1.38,1.48-1.47,2.74-.35,4.5,4.66,7.34,10.89,12.75,18.93,16.09,1.5.62,2.61.49,3.61-.82,1.23-1.6,2.61-3.1,3.79-4.74,1-1.4,2.12-1.91,3.72-1.15,3.79,1.82,7.63,3.55,11.34,5.51.71.37,1.31,1.63,1.34,2.51.18,5.76-3.8,10.42-10.08,11.91-1.33.32-2.72.39-3.91.55h0Z"/>
      </g>
    </g>
  </g>
</svg>